{"title":"Dirty Little Trick 2011 DvDRip XviD Ac3 Feel-Free","uid":7018290,"size":1299863551,"categoryP":"video","categoryS":"movies","magnet":"?xt=urn:btih:b52cff8d81a6770b43aa093a20695b8272c7e8f9&amp;dn=Dirty+Little+Trick+2011+DvDRip+XviD+Ac3+Feel-Free&amp;tr=udp%3A%2F%2Ftracker.openbittorrent.com%3A80&amp;tr=udp%3A%2F%2Fopen.demonii.com%3A1337&amp;tr=udp%3A%2F%2Ftracker.coppersurfer.tk%3A6969&amp;tr=udp%3A%2F%2Fexodus.desync.com%3A6969","seeders":0,"leechers":0,"uploader":null,"files":8,"time":1328742017,"description":"Genre:Crime | Thriller\nLanguage:English\n\n &lt;a href=&quot; http://www.imdb.com/title/tt1667417/&quot; rel=&quot;nofollow&quot; target=&quot;_NEW&quot;&gt; http://www.imdb.com/title/tt1667417/&lt;/a&gt;\nSource:DVDR-KART3LDVD Thanks!\nEncoder:Tony\n\nFormat : AVI\nFormat/Info : Audio Video Interleave\nFile size : 1.21 GiB\nDuration : 1h 28mn\nOverall bit rate : 1 959 Kbps\n\nVideo\nID : 0\nFormat : MPEG-4 Visual\nFormat profile : Advanced Simple@L5\nFormat settings, BVOP : 1\nFormat settings, QPel : No\nFormat settings, GMC : No warppoints\nFormat settings, Matrix : Default (H.263)\nCodec ID : XVID\nCodec ID/Hint : XviD\nDuration : 1h 28mn\nBit rate : 1 500 Kbps\nWidth : 640 pixels\nHeight : 360 pixels\nDisplay aspect ratio : 16:9\nFrame rate : 29.970 fps\nColor space : YUV\nChroma subsampling : 4:2:0\nBit depth : 8 bits\nScan type : Progressive\nCompression mode : Lossy\nBits/(Pixel*Frame) : 0.217\nStream size : 948 MiB (77%)\nWriting library : XviD 1.2.1 (UTC 2008-12-04)\n\nAudio\nID : 1\nFormat : AC-3\nFormat/Info : Audio Coding 3\nMode extension : CM (complete main)\nCodec ID : 2000\nDuration : 1h 28mn\nBit rate mode : Constant\nBit rate : 448 Kbps\nChannel(s) : 6 channels\nChannel positions : Front: L C R, Side: L R, LFE\nSampling rate : 48.0 KHz\nBit depth : 16 bits\nCompression mode : Lossy\nStream size : 283 MiB (23%)\nAlignment : Aligned on interleaves\nInterleave, duration : 33 ms (1.00 video frame)\nInterleave, preload duration : 512 ms\n","torrent":{"xt":"urn:btih:b52cff8d81a6770b43aa093a20695b8272c7e8f9","amp;dn":"Dirty+Little+Trick+2011+DvDRip+XviD+Ac3+Feel-Free","amp;tr":["udp%3A%2F%2Ftracker.openbittorrent.com%3A80","udp%3A%2F%2Fopen.demonii.com%3A1337","udp%3A%2F%2Ftracker.coppersurfer.tk%3A6969","udp%3A%2F%2Fexodus.desync.com%3A6969"],"infoHash":"b52cff8d81a6770b43aa093a20695b8272c7e8f9","infoHashBuffer":{"type":"Buffer","data":[181,44,255,141,129,166,119,11,67,170,9,58,32,105,91,130,114,199,232,249]},"announce":[],"urlList":[]}}